<svg width="163" height="48" viewBox="0 0 163 48" fill="none" xmlns="http://www.w3.org/2000/svg">
<g clip-path="url(#clip0_468_4085)">
<path d="M156.256 0.959636C157.595 0.959636 158.879 1.49043 159.825 2.43526C160.772 3.38008 161.304 4.66154 161.304 5.99772V41.984C161.304 43.3202 160.772 44.6017 159.825 45.5465C158.879 46.4913 157.595 47.0221 156.256 47.0221H6.00984C4.67096 47.0221 3.38691 46.4913 2.44018 45.5465C1.49344 44.6017 0.961574 43.3202 0.961574 41.984V5.99772C0.961574 4.66154 1.49344 3.38008 2.44018 2.43526C3.38691 1.49043 4.67096 0.959636 6.00984 0.959636H156.256ZM156.256 0H6.00984C4.41593 0 2.8873 0.631901 1.76024 1.75669C0.633178 2.88148 0 4.40703 0 5.99772V41.984C0 43.5747 0.633178 45.1003 1.76024 46.2251C2.8873 47.3499 4.41593 47.9818 6.00984 47.9818H156.256C157.85 47.9818 159.378 47.3499 160.505 46.2251C161.632 45.1003 162.266 43.5747 162.266 41.984V5.99772C162.266 4.40703 161.632 2.88148 160.505 1.75669C159.378 0.631901 157.85 0 156.256 0Z" fill="#0F0F54"/>
<path d="M38.5991 23.1675C38.5659 19.4838 41.6214 17.6917 41.7612 17.6083C40.0307 15.0904 37.3485 14.7464 36.406 14.7189C34.1533 14.4824 31.9682 16.0642 30.8207 16.0642C29.6502 16.0642 27.8831 14.7418 25.9786 14.7807C23.5278 14.8184 21.235 16.2345 19.9775 18.4335C17.3824 22.9172 19.3178 29.5062 21.8042 33.1305C23.0479 34.9054 24.5012 36.8873 26.4035 36.8176C28.2645 36.741 28.9596 35.6335 31.2055 35.6335C33.4307 35.6335 34.0835 36.8176 36.0235 36.773C38.0208 36.741 39.2783 34.99 40.4785 33.199C41.9158 31.1646 42.493 29.1611 42.5159 29.0582C42.4689 29.0422 38.6369 27.5827 38.5991 23.1675Z" fill="#0F0F54"/>
<path d="M34.935 12.3346C35.9359 11.0854 36.6208 9.38582 36.4307 7.66113C34.982 7.72514 33.1702 8.6612 32.1269 9.883C31.2038 10.9596 30.3792 12.7243 30.5922 14.3839C32.2196 14.505 33.8905 13.5644 34.935 12.3346Z" fill="#0F0F54"/>
<path d="M65.5313 36.5617H62.9305L61.5058 32.094H56.5538L55.1967 36.5617H52.6646L57.5708 21.3516H60.6011L65.5313 36.5617ZM61.0764 30.2196L59.788 26.2479C59.6517 25.8421 59.3963 24.8867 59.0195 23.3826H58.9737C58.8237 24.0295 58.582 24.9849 58.2499 26.2479L56.9844 30.2196H61.0764Z" fill="#0F0F54"/>
<path d="M78.1484 30.9437C78.1484 32.809 77.6433 34.2834 76.6332 35.3657C75.7285 36.3292 74.605 36.8104 73.2639 36.8104C71.8163 36.8104 70.7764 36.2915 70.1431 35.2537H70.0973V41.0312H67.6557V29.2053C67.6557 28.0327 67.6247 26.8292 67.5652 25.5948H69.7125L69.8488 27.3332H69.8946C70.7089 26.0234 71.9446 25.3696 73.6029 25.3696C74.8993 25.3696 75.9816 25.8805 76.8474 26.9034C77.7155 27.9275 78.1484 29.2739 78.1484 30.9437ZM75.6609 31.0329C75.6609 29.9654 75.4204 29.0853 74.9371 28.3927C74.4091 27.6704 73.7002 27.3092 72.8115 27.3092C72.2091 27.3092 71.6617 27.5103 71.1727 27.9069C70.6825 28.307 70.3619 28.8293 70.2118 29.4762C70.1362 29.7779 70.0985 30.0248 70.0985 30.2191V32.0478C70.0985 32.8456 70.3435 33.5187 70.8337 34.0685C71.3239 34.6182 71.9606 34.8925 72.744 34.8925C73.6636 34.8925 74.3794 34.5382 74.8913 33.8319C75.4044 33.1244 75.6609 32.1918 75.6609 31.0329Z" fill="#0F0F54"/>
<path d="M90.7883 30.9437C90.7883 32.809 90.2833 34.2834 89.272 35.3657C88.3684 36.3292 87.245 36.8104 85.9039 36.8104C84.4563 36.8104 83.4164 36.2915 82.7842 35.2537H82.7384V41.0312H80.2968V29.2053C80.2968 28.0327 80.2659 26.8292 80.2063 25.5948H82.3536L82.4899 27.3332H82.5357C83.3488 26.0234 84.5846 25.3696 86.244 25.3696C87.5393 25.3696 88.6215 25.8805 89.4896 26.9034C90.3543 27.9275 90.7883 29.2739 90.7883 30.9437ZM88.3009 31.0329C88.3009 29.9654 88.0592 29.0853 87.5759 28.3927C87.048 27.6704 86.3414 27.3092 85.4515 27.3092C84.848 27.3092 84.3017 27.5103 83.8115 27.9069C83.3214 28.307 83.0018 28.8293 82.8518 29.4762C82.7774 29.7779 82.7384 30.0248 82.7384 30.2191V32.0478C82.7384 32.8456 82.9835 33.5187 83.4714 34.0685C83.9615 34.6171 84.5983 34.8925 85.3839 34.8925C86.3036 34.8925 87.0193 34.5382 87.5313 33.8319C88.0443 33.1244 88.3009 32.1918 88.3009 31.0329Z" fill="#0F0F54"/>
<path d="M104.921 32.296C104.921 33.5898 104.471 34.6425 103.567 35.4551C102.574 36.3431 101.192 36.7866 99.4155 36.7866C97.7755 36.7866 96.4608 36.4712 95.4656 35.8391L96.0313 33.8081C97.1033 34.455 98.2794 34.7796 99.561 34.7796C100.481 34.7796 101.196 34.5716 101.711 34.1579C102.223 33.7441 102.478 33.1886 102.478 32.496C102.478 31.8788 102.267 31.3588 101.845 30.9371C101.424 30.5153 100.722 30.1233 99.7419 29.761C97.0735 28.7678 95.7404 27.3128 95.7404 25.3996C95.7404 24.1492 96.2077 23.124 97.1434 22.3262C98.0756 21.5273 99.3193 21.1284 100.875 21.1284C102.261 21.1284 103.414 21.3696 104.333 21.8508L103.723 23.8372C102.864 23.3709 101.893 23.1377 100.806 23.1377C99.9469 23.1377 99.2758 23.3491 98.7948 23.7697C98.3882 24.1458 98.1844 24.6041 98.1844 25.147C98.1844 25.7482 98.4169 26.2453 98.8841 26.6362C99.2907 26.9974 100.029 27.3883 101.101 27.81C102.413 28.3369 103.376 28.9529 103.995 29.6593C104.613 30.3633 104.921 31.2445 104.921 32.296Z" fill="#0F0F54"/>
<path d="M112.994 27.4228H110.302V32.7477C110.302 34.1021 110.776 34.7787 111.727 34.7787C112.163 34.7787 112.525 34.741 112.811 34.6655L112.879 36.516C112.398 36.6954 111.765 36.7857 110.98 36.7857C110.016 36.7857 109.262 36.492 108.718 35.9056C108.177 35.3182 107.904 34.333 107.904 32.9489V27.4205H106.301V25.5918H107.904V23.5837L110.302 22.8613V25.5918H112.994V27.4228Z" fill="#0F0F54"/>
<path d="M125.137 30.9871C125.137 32.673 124.654 34.0571 123.69 35.1394C122.678 36.2538 121.336 36.8092 119.663 36.8092C118.05 36.8092 116.767 36.2755 115.809 35.208C114.852 34.1405 114.373 32.793 114.373 31.1689C114.373 29.4693 114.866 28.0772 115.854 26.9949C116.84 25.9114 118.171 25.3696 119.844 25.3696C121.456 25.3696 122.754 25.9034 123.733 26.972C124.67 28.0087 125.137 29.347 125.137 30.9871ZM122.604 31.066C122.604 30.0545 122.387 29.187 121.949 28.4635C121.437 27.5881 120.705 27.1515 119.757 27.1515C118.775 27.1515 118.03 27.5892 117.518 28.4635C117.079 29.1882 116.863 30.0694 116.863 31.1117C116.863 32.1232 117.079 32.9907 117.518 33.713C118.046 34.5885 118.783 35.0251 119.735 35.0251C120.667 35.0251 121.399 34.5794 121.927 33.6902C122.377 32.953 122.604 32.0764 122.604 31.066Z" fill="#0F0F54"/>
<path d="M133.073 27.7378C132.831 27.6932 132.573 27.6704 132.303 27.6704C131.444 27.6704 130.78 27.9938 130.313 28.6418C129.906 29.2133 129.702 29.9356 129.702 30.8077V36.5624H127.262L127.285 29.0487C127.285 27.7846 127.254 26.6337 127.193 25.5959H129.32L129.409 27.6944H129.477C129.734 26.9732 130.141 26.3926 130.698 25.9571C131.242 25.5651 131.829 25.3696 132.462 25.3696C132.688 25.3696 132.892 25.3856 133.073 25.4142V27.7378Z" fill="#0F0F54"/>
<path d="M143.993 30.5598C143.993 30.9964 143.965 31.3644 143.904 31.665H136.579C136.608 32.7485 136.962 33.5771 137.642 34.1486C138.259 34.6595 139.057 34.9155 140.038 34.9155C141.122 34.9155 142.112 34.7429 143.002 34.3966L143.384 36.0881C142.344 36.5407 141.117 36.7659 139.7 36.7659C137.996 36.7659 136.658 36.2653 135.685 35.2652C134.714 34.2651 134.227 32.9222 134.227 31.2375C134.227 29.5837 134.679 28.2065 135.585 27.1081C136.533 25.9354 137.815 25.3491 139.427 25.3491C141.011 25.3491 142.21 25.9354 143.025 27.1081C143.669 28.0396 143.993 29.1917 143.993 30.5598ZM141.665 29.9277C141.681 29.2054 141.522 28.5813 141.191 28.0544C140.768 27.3767 140.119 27.0384 139.245 27.0384C138.447 27.0384 137.798 27.3687 137.302 28.0316C136.895 28.5585 136.654 29.1905 136.579 29.9266H141.665V29.9277Z" fill="#0F0F54"/>
<path d="M60.2693 11.9979C60.2693 13.3431 59.865 14.3558 59.0576 15.0358C58.3098 15.6633 57.247 15.9776 55.8704 15.9776C55.1878 15.9776 54.6038 15.9479 54.1147 15.8885V8.53825C54.7526 8.43539 55.4398 8.38281 56.1819 8.38281C57.4932 8.38281 58.4816 8.6674 59.1481 9.23658C59.8948 9.88005 60.2693 10.8001 60.2693 11.9979ZM59.0038 12.0311C59.0038 11.159 58.7724 10.4904 58.3098 10.0241C57.8471 9.55889 57.1714 9.32573 56.2815 9.32573C55.9036 9.32573 55.5818 9.35088 55.315 9.40345V14.9913C55.4627 15.0141 55.733 15.0244 56.1258 15.0244C57.0443 15.0244 57.7532 14.7695 58.2525 14.2598C58.7518 13.75 59.0038 13.0071 59.0038 12.0311Z" fill="#0F0F54"/>
<path d="M66.9795 13.1707C66.9795 13.9993 66.7424 14.6782 66.2683 15.2108C65.7712 15.7583 65.1127 16.0314 64.2904 16.0314C63.4979 16.0314 62.8669 15.7697 62.3962 15.2439C61.9267 14.7193 61.6919 14.0576 61.6919 13.2598C61.6919 12.4255 61.9335 11.7409 62.4191 11.2094C62.9047 10.6779 63.5575 10.4116 64.3798 10.4116C65.1723 10.4116 65.809 10.6734 66.2912 11.198C66.7493 11.7077 66.9795 12.366 66.9795 13.1707ZM65.7346 13.2095C65.7346 12.7123 65.6269 12.286 65.4128 11.9306C65.1608 11.5008 64.8024 11.286 64.3363 11.286C63.8541 11.286 63.4876 11.5008 63.2357 11.9306C63.0204 12.286 62.9139 12.7192 62.9139 13.2312C62.9139 13.7284 63.0215 14.1547 63.2357 14.5102C63.4956 14.9399 63.8575 15.1548 64.3248 15.1548C64.7829 15.1548 65.1425 14.9365 65.4013 14.4988C65.6235 14.1364 65.7346 13.7067 65.7346 13.2095Z" fill="#0F0F54"/>
<path d="M75.9768 10.522L74.2876 15.9098H73.1881L72.4884 13.5702C72.3109 12.9861 72.1666 12.4055 72.0543 11.8295H72.0326C71.9284 12.4215 71.7841 13.001 71.5985 13.5702L70.8553 15.9098H69.7432L68.1548 10.522H69.3882L69.9986 13.0833C70.1464 13.689 70.2678 14.2662 70.3651 14.8125H70.3869C70.4762 14.3622 70.6239 13.7885 70.8324 13.0947L71.5985 10.5231H72.5766L73.3107 13.0399C73.4882 13.6536 73.6325 14.2445 73.7436 14.8137H73.7768C73.8581 14.2594 73.9806 13.6685 74.1433 13.0399L74.7983 10.5231H75.9768V10.522Z" fill="#0F0F54"/>
<path d="M82.1987 15.9091H80.9985V12.8232C80.9985 11.8723 80.6366 11.3968 79.9105 11.3968C79.5543 11.3968 79.2669 11.5271 79.0436 11.7889C78.8225 12.0506 78.7103 12.3592 78.7103 12.7124V15.908H77.5101V12.0609C77.5101 11.5877 77.4952 11.0745 77.4666 10.5191H78.5213L78.5774 11.3614H78.6107C78.7504 11.0997 78.9588 10.8837 79.2325 10.7111C79.5578 10.5099 79.9219 10.4082 80.3205 10.4082C80.8244 10.4082 81.2436 10.5705 81.5768 10.8962C81.9914 11.2951 82.1987 11.8906 82.1987 12.6815V15.9091Z" fill="#0F0F54"/>
<path d="M85.5084 15.9098H84.3093V8.0498H85.5084V15.9098Z" fill="#0F0F54"/>
<path d="M92.5745 13.1707C92.5745 13.9993 92.3374 14.6782 91.8633 15.2108C91.3662 15.7583 90.7066 16.0314 89.8854 16.0314C89.0918 16.0314 88.4607 15.7697 87.9912 15.2439C87.5216 14.7193 87.2869 14.0576 87.2869 13.2598C87.2869 12.4255 87.5285 11.7409 88.0141 11.2094C88.4997 10.6779 89.1525 10.4116 89.9736 10.4116C90.7673 10.4116 91.4029 10.6734 91.8862 11.198C92.3443 11.7077 92.5745 12.366 92.5745 13.1707ZM91.3284 13.2095C91.3284 12.7123 91.2208 12.286 91.0066 11.9306C90.7558 11.5008 90.3962 11.286 89.9312 11.286C89.4479 11.286 89.0815 11.5008 88.8307 11.9306C88.6153 12.286 88.5088 12.7192 88.5088 13.2312C88.5088 13.7284 88.6165 14.1547 88.8307 14.5102C89.0906 14.9399 89.4525 15.1548 89.9198 15.1548C90.3779 15.1548 90.7363 14.9365 90.9952 14.4988C91.2185 14.1364 91.3284 13.7067 91.3284 13.2095Z" fill="#0F0F54"/>
<path d="M98.383 15.9091H97.3053L97.216 15.2885H97.1828C96.814 15.7834 96.2884 16.0314 95.6058 16.0314C95.0962 16.0314 94.6839 15.868 94.3735 15.5434C94.0918 15.2485 93.9509 14.8816 93.9509 14.4462C93.9509 13.7878 94.2258 13.2861 94.7789 12.9386C95.3309 12.5912 96.1074 12.4209 97.1072 12.4289V12.3283C97.1072 11.6186 96.7339 11.2642 95.986 11.2642C95.4535 11.2642 94.9839 11.398 94.5785 11.6631L94.3346 10.8768C94.8362 10.5671 95.4558 10.4116 96.1864 10.4116C97.5974 10.4116 98.3051 11.1545 98.3051 12.6403V14.6245C98.3051 15.1628 98.3315 15.5914 98.383 15.9091ZM97.137 14.0576V13.2267C95.8131 13.2038 95.1511 13.5661 95.1511 14.3125C95.1511 14.5936 95.2267 14.8039 95.3813 14.9445C95.5359 15.0851 95.7329 15.1548 95.9677 15.1548C96.2311 15.1548 96.4773 15.0714 96.7018 14.9056C96.9274 14.7388 97.066 14.5273 97.1175 14.2679C97.1301 14.2096 97.137 14.1387 97.137 14.0576Z" fill="#0F0F54"/>
<path d="M105.203 15.9098H104.138L104.081 15.0446H104.048C103.708 15.7029 103.129 16.0321 102.314 16.0321C101.664 16.0321 101.122 15.7772 100.693 15.2674C100.263 14.7577 100.049 14.0959 100.049 13.2833C100.049 12.4112 100.282 11.7049 100.749 11.1654C101.201 10.6625 101.755 10.4111 102.415 10.4111C103.14 10.4111 103.647 10.6545 103.936 11.1426H103.959V8.0498H105.16V14.4582C105.16 14.9828 105.174 15.4663 105.203 15.9098ZM103.959 13.6376V12.7393C103.959 12.5838 103.947 12.4581 103.926 12.3621C103.858 12.0741 103.713 11.8318 103.492 11.6363C103.268 11.4409 102.999 11.3426 102.689 11.3426C102.241 11.3426 101.891 11.5198 101.633 11.8752C101.378 12.2307 101.248 12.6844 101.248 13.2387C101.248 13.7713 101.371 14.2034 101.617 14.536C101.877 14.8903 102.227 15.0674 102.666 15.0674C103.06 15.0674 103.375 14.92 103.614 14.624C103.846 14.3508 103.959 14.0216 103.959 13.6376Z" fill="#0F0F54"/>
<path d="M115.467 13.1707C115.467 13.9993 115.23 14.6782 114.756 15.2108C114.259 15.7583 113.602 16.0314 112.778 16.0314C111.987 16.0314 111.356 15.7697 110.884 15.2439C110.414 14.7193 110.18 14.0576 110.18 13.2598C110.18 12.4255 110.421 11.7409 110.907 11.2094C111.393 10.6779 112.045 10.4116 112.869 10.4116C113.66 10.4116 114.298 10.6734 114.779 11.198C115.237 11.7077 115.467 12.366 115.467 13.1707ZM114.224 13.2095C114.224 12.7123 114.116 12.286 113.902 11.9306C113.649 11.5008 113.291 11.286 112.824 11.286C112.343 11.286 111.977 11.5008 111.723 11.9306C111.508 12.286 111.402 12.7192 111.402 13.2312C111.402 13.7284 111.509 14.1547 111.723 14.5102C111.983 14.9399 112.345 15.1548 112.813 15.1548C113.271 15.1548 113.631 14.9365 113.89 14.4988C114.111 14.1364 114.224 13.7067 114.224 13.2095Z" fill="#0F0F54"/>
<path d="M121.92 15.9091H120.721V12.8232C120.721 11.8723 120.359 11.3968 119.632 11.3968C119.276 11.3968 118.989 11.5271 118.766 11.7889C118.544 12.0506 118.433 12.3592 118.433 12.7124V15.908H117.232V12.0609C117.232 11.5877 117.218 11.0745 117.189 10.5191H118.243L118.299 11.3614H118.332C118.473 11.0997 118.682 10.8837 118.954 10.7111C119.281 10.5099 119.644 10.4082 120.043 10.4082C120.546 10.4082 120.965 10.5705 121.299 10.8962C121.714 11.2951 121.92 11.8906 121.92 12.6815V15.9091Z" fill="#0F0F54"/>
<path d="M129.998 11.4187H128.676V14.036C128.676 14.7012 128.911 15.0338 129.376 15.0338C129.591 15.0338 129.77 15.0155 129.911 14.9778L129.942 15.8864C129.705 15.9756 129.393 16.0201 129.01 16.0201C128.535 16.0201 128.167 15.8761 127.9 15.5881C127.632 15.3001 127.499 14.8155 127.499 14.1354V11.4187H126.71V10.5215H127.499V9.534L128.675 9.17969V10.5203H129.997V11.4187H129.998Z" fill="#0F0F54"/>
<path d="M136.352 15.9098H135.151V12.8467C135.151 11.8809 134.789 11.3975 134.064 11.3975C133.507 11.3975 133.127 11.6775 132.919 12.2375C132.883 12.3552 132.862 12.4992 132.862 12.6684V15.9086H131.663V8.0498H132.862V11.2969H132.885C133.263 10.706 133.805 10.4111 134.507 10.4111C135.004 10.4111 135.415 10.5734 135.742 10.8991C136.148 11.3049 136.352 11.9083 136.352 12.7061V15.9098Z" fill="#0F0F54"/>
<path d="M142.906 12.9604C142.906 13.1753 142.89 13.3558 142.862 13.5033H139.262C139.278 14.0359 139.45 14.4416 139.783 14.7228C140.088 14.9742 140.481 15.1 140.962 15.1C141.494 15.1 141.98 15.0154 142.417 14.8451L142.605 15.6771C142.093 15.8989 141.491 16.0097 140.793 16.0097C139.957 16.0097 139.299 15.764 138.822 15.2725C138.344 14.7811 138.106 14.1216 138.106 13.2941C138.106 12.4815 138.327 11.8049 138.773 11.2654C139.238 10.6894 139.867 10.4014 140.66 10.4014C141.437 10.4014 142.027 10.6894 142.425 11.2654C142.747 11.7226 142.906 12.2883 142.906 12.9604ZM141.761 12.6507C141.77 12.2952 141.691 11.9889 141.528 11.7306C141.32 11.398 141.003 11.2311 140.573 11.2311C140.182 11.2311 139.862 11.3934 139.618 11.7192C139.419 11.9786 139.301 12.2883 139.262 12.6507H141.761Z" fill="#0F0F54"/>
</g>
<defs>
<clipPath id="clip0_468_4085">
<rect width="162.266" height="47.9818" fill="white"/>
</clipPath>
</defs>
</svg>
